# xmcd CD database file
#
# Track frame offsets:
#	150
#	16137
#	33748
#	54414
#	66917
#	80877
#	104493
#	125178
#	143788
#	163171
#	181445
#	195887
#	242397
#
# Disc length: 4498 seconds
#
# Revision: 0
# Processed by: cddbd v1.5.1PL0 Copyright (c) Steve Scherf et al.
# Submitted via: CDex 1.51
#
DISCID=b611900d
DTITLE=Michael Hoppé - Solace For You
DYEAR=2004
DGENRE=New Age
TTITLE0=This majestic land
TTITLE1=So you
TTITLE2=Romance for violin and orchestra
TTITLE3=Lachrymosa
TTITLE4=Beloved
TTITLE5=Renouncement
TTITLE6=Jude's theme
TTITLE7=Nimbus
TTITLE8=Elegy (for Joan)
TTITLE9=Pie Jesu
TTITLE10=Farewell
TTITLE11=The parting
TTITLE12=This Majestic Land (Music Video Track)
EXTD=YEAR: 2004
EXTT0=
EXTT1=
EXTT2=
EXTT3=
EXTT4=
EXTT5=
EXTT6=
EXTT7=
EXTT8=
EXTT9=
EXTT10=
EXTT11=
EXTT12=
PLAYORDER=
